<mxfile host="app.diagrams.net" modified="2024-05-17T08:54:40.644Z" agent="Mozilla/5.0 (Windows NT 10.0; Win64; x64) AppleWebKit/537.36 (KHTML, like Gecko) Chrome/124.0.0.0 Safari/537.36" etag="7cX0klHaooa8x9S0kbnV" version="24.4.2" type="github">
  <diagram name="Page-1" id="7hcboYphIdV2M9OU0Pfs">
    <mxGraphModel dx="1434" dy="780" grid="1" gridSize="10" guides="1" tooltips="1" connect="1" arrows="1" fold="1" page="1" pageScale="1" pageWidth="827" pageHeight="1169" math="0" shadow="0">
      <root>
        <mxCell id="0" />
        <mxCell id="1" parent="0" />
        <mxCell id="RzKdqXnRlu06st_-sw-4-15" style="edgeStyle=orthogonalEdgeStyle;rounded=0;orthogonalLoop=1;jettySize=auto;html=1;entryX=0.5;entryY=0;entryDx=0;entryDy=0;" edge="1" parent="1" source="RzKdqXnRlu06st_-sw-4-1" target="RzKdqXnRlu06st_-sw-4-6">
          <mxGeometry relative="1" as="geometry">
            <mxPoint x="460" y="480" as="targetPoint" />
          </mxGeometry>
        </mxCell>
        <mxCell id="RzKdqXnRlu06st_-sw-4-1" value="" style="rounded=0;whiteSpace=wrap;html=1;" vertex="1" parent="1">
          <mxGeometry x="660" y="450" width="120" height="60" as="geometry" />
        </mxCell>
        <mxCell id="RzKdqXnRlu06st_-sw-4-2" value="" style="rounded=0;whiteSpace=wrap;html=1;" vertex="1" parent="1">
          <mxGeometry x="270" y="360" width="120" height="60" as="geometry" />
        </mxCell>
        <mxCell id="RzKdqXnRlu06st_-sw-4-3" value="" style="rounded=0;whiteSpace=wrap;html=1;" vertex="1" parent="1">
          <mxGeometry x="450" y="360" width="120" height="60" as="geometry" />
        </mxCell>
        <mxCell id="RzKdqXnRlu06st_-sw-4-7" style="edgeStyle=orthogonalEdgeStyle;rounded=0;orthogonalLoop=1;jettySize=auto;html=1;exitX=0;exitY=0.5;exitDx=0;exitDy=0;entryX=0.417;entryY=-0.017;entryDx=0;entryDy=0;entryPerimeter=0;" edge="1" parent="1" source="RzKdqXnRlu06st_-sw-4-4" target="RzKdqXnRlu06st_-sw-4-2">
          <mxGeometry relative="1" as="geometry">
            <mxPoint x="320" y="240" as="targetPoint" />
          </mxGeometry>
        </mxCell>
        <mxCell id="RzKdqXnRlu06st_-sw-4-11" style="edgeStyle=orthogonalEdgeStyle;rounded=0;orthogonalLoop=1;jettySize=auto;html=1;entryX=0.5;entryY=0;entryDx=0;entryDy=0;" edge="1" parent="1" source="RzKdqXnRlu06st_-sw-4-4" target="RzKdqXnRlu06st_-sw-4-1">
          <mxGeometry relative="1" as="geometry">
            <mxPoint x="720" y="240" as="targetPoint" />
          </mxGeometry>
        </mxCell>
        <mxCell id="RzKdqXnRlu06st_-sw-4-4" value="" style="rounded=0;whiteSpace=wrap;html=1;" vertex="1" parent="1">
          <mxGeometry x="430" y="210" width="120" height="70" as="geometry" />
        </mxCell>
        <mxCell id="RzKdqXnRlu06st_-sw-4-5" value="" style="rounded=0;whiteSpace=wrap;html=1;" vertex="1" parent="1">
          <mxGeometry x="670" y="680" width="120" height="60" as="geometry" />
        </mxCell>
        <mxCell id="RzKdqXnRlu06st_-sw-4-6" value="" style="rounded=0;whiteSpace=wrap;html=1;" vertex="1" parent="1">
          <mxGeometry x="410" y="680" width="120" height="60" as="geometry" />
        </mxCell>
        <mxCell id="RzKdqXnRlu06st_-sw-4-13" style="edgeStyle=orthogonalEdgeStyle;rounded=0;orthogonalLoop=1;jettySize=auto;html=1;exitX=0.5;exitY=1;exitDx=0;exitDy=0;entryX=0.417;entryY=0;entryDx=0;entryDy=0;entryPerimeter=0;" edge="1" parent="1" source="RzKdqXnRlu06st_-sw-4-1" target="RzKdqXnRlu06st_-sw-4-5">
          <mxGeometry relative="1" as="geometry" />
        </mxCell>
        <mxCell id="RzKdqXnRlu06st_-sw-4-14" style="edgeStyle=orthogonalEdgeStyle;rounded=0;orthogonalLoop=1;jettySize=auto;html=1;entryX=0.333;entryY=-0.05;entryDx=0;entryDy=0;entryPerimeter=0;" edge="1" parent="1" source="RzKdqXnRlu06st_-sw-4-4" target="RzKdqXnRlu06st_-sw-4-3">
          <mxGeometry relative="1" as="geometry" />
        </mxCell>
        <mxCell id="RzKdqXnRlu06st_-sw-4-16" value="&lt;font style=&quot;font-size: 16px;&quot;&gt;&lt;b&gt;About&lt;/b&gt;&lt;/font&gt;" style="text;html=1;align=center;verticalAlign=middle;whiteSpace=wrap;rounded=0;" vertex="1" parent="1">
          <mxGeometry x="300" y="375" width="60" height="30" as="geometry" />
        </mxCell>
        <mxCell id="RzKdqXnRlu06st_-sw-4-17" value="&lt;font style=&quot;font-size: 16px;&quot;&gt;Home&lt;/font&gt;" style="text;html=1;align=center;verticalAlign=middle;whiteSpace=wrap;rounded=0;fontStyle=1" vertex="1" parent="1">
          <mxGeometry x="460" y="230" width="60" height="30" as="geometry" />
        </mxCell>
        <mxCell id="RzKdqXnRlu06st_-sw-4-18" value="&lt;font style=&quot;font-size: 15px;&quot;&gt;Contact Us&lt;/font&gt;" style="text;html=1;align=center;verticalAlign=middle;whiteSpace=wrap;rounded=0;fontStyle=1" vertex="1" parent="1">
          <mxGeometry x="470" y="375" width="60" height="30" as="geometry" />
        </mxCell>
        <mxCell id="RzKdqXnRlu06st_-sw-4-19" value="&lt;font style=&quot;font-size: 15px;&quot;&gt;Web Design&lt;/font&gt;" style="text;html=1;align=center;verticalAlign=middle;whiteSpace=wrap;rounded=0;fontStyle=1" vertex="1" parent="1">
          <mxGeometry x="440" y="695" width="60" height="30" as="geometry" />
        </mxCell>
        <mxCell id="RzKdqXnRlu06st_-sw-4-20" value="&lt;font style=&quot;font-size: 15px;&quot;&gt;Web development&lt;/font&gt;" style="text;html=1;align=center;verticalAlign=middle;whiteSpace=wrap;rounded=0;fontStyle=1" vertex="1" parent="1">
          <mxGeometry x="700" y="695" width="60" height="30" as="geometry" />
        </mxCell>
        <mxCell id="RzKdqXnRlu06st_-sw-4-21" value="&lt;font style=&quot;font-size: 15px;&quot;&gt;Services&lt;/font&gt;" style="text;html=1;align=center;verticalAlign=middle;whiteSpace=wrap;rounded=0;fontStyle=1" vertex="1" parent="1">
          <mxGeometry x="690" y="465" width="60" height="30" as="geometry" />
        </mxCell>
        <mxCell id="RzKdqXnRlu06st_-sw-4-22" value="&lt;ul style=&quot;font-size: 19px;&quot;&gt;&lt;li&gt;Home&lt;/li&gt;&lt;li&gt;About&lt;/li&gt;&lt;li&gt;Contact Us&lt;/li&gt;&lt;li&gt;Services&lt;/li&gt;&lt;/ul&gt;" style="text;html=1;align=center;verticalAlign=middle;whiteSpace=wrap;rounded=0;" vertex="1" parent="1">
          <mxGeometry x="10" y="265" width="140" height="140" as="geometry" />
        </mxCell>
      </root>
    </mxGraphModel>
  </diagram>
</mxfile>
